<svg width="16" height="16" viewBox="0 0 16 16" fill="none" xmlns="http://www.w3.org/2000/svg">
  <g clip-path="url(#clip0_157_406)">
    <path
      d="M13.7812 1.84062L14.1594 2.21874C14.4531 2.51249 14.4531 2.98749 14.1594 3.27812L13.25 4.19062L11.8094 2.74999L12.7188 1.84062C13.0125 1.54687 13.4875 1.54687 13.7781 1.84062H13.7812ZM6.55625 8.00624L10.75 3.80937L12.1906 5.24999L7.99375 9.44374C7.90313 9.53437 7.79062 9.59999 7.66875 9.63437L5.84062 10.1562L6.3625 8.32812C6.39688 8.20624 6.4625 8.09374 6.55312 8.00312L6.55625 8.00624ZM11.6594 0.781244L5.49375 6.94374C5.22188 7.21562 5.025 7.54999 4.92188 7.91562L4.02812 11.0406C3.95312 11.3031 4.025 11.5844 4.21875 11.7781C4.4125 11.9719 4.69375 12.0437 4.95625 11.9687L8.08125 11.075C8.45 10.9687 8.78438 10.7719 9.05313 10.5031L15.2188 4.34062C16.0969 3.46249 16.0969 2.03749 15.2188 1.15937L14.8406 0.781244C13.9625 -0.0968811 12.5375 -0.0968811 11.6594 0.781244ZM2.75 1.99999C1.23125 1.99999 0 3.23124 0 4.74999V13.25C0 14.7687 1.23125 16 2.75 16H11.25C12.7688 16 14 14.7687 14 13.25V9.74999C14 9.33437 13.6656 8.99999 13.25 8.99999C12.8344 8.99999 12.5 9.33437 12.5 9.74999V13.25C12.5 13.9406 11.9406 14.5 11.25 14.5H2.75C2.05938 14.5 1.5 13.9406 1.5 13.25V4.74999C1.5 4.05937 2.05938 3.49999 2.75 3.49999H6.25C6.66563 3.49999 7 3.16562 7 2.74999C7 2.33437 6.66563 1.99999 6.25 1.99999H2.75Z"
      fill="#0A2540"
    />
  </g>
  <defs>
    <clipPath id="clip0_157_406">
      <rect width="16" height="16" fill="white" />
    </clipPath>
  </defs>
</svg>
