<?xml version="1.0" encoding="UTF-8"?>
<svg width="16" height="16" version="1.1" viewBox="0 0 1200 1200" xmlns="http://www.w3.org/2000/svg">
 <g>
  <path d="m882 366h-408c-59.551 0-108 48.449-108 108v408c0 59.551 48.449 108 108 108h408c59.551 0 108-48.449 108-108v-408c0-59.551-48.449-108-108-108zm60 516c0 33-27 60-60 60h-408c-33 0-60-27-60-60v-408c0-33 27-60 60-60h408c33 0 60 27 60 60z"/>
  <path d="m306 738h-12c-19.852 0-36-16.148-36-36v-408c0-19.852 16.148-36 36-36h408c19.852 0 36 16.148 36 36v12c0 13.254 10.746 24 24 24s24-10.746 24-24v-12c0-46.32-37.688-84-84-84h-408c-46.312 0-84 37.68-84 84v408c0 46.32 37.688 84 84 84h12c13.254 0 24-10.746 24-24s-10.746-24-24-24z"/>
  <path d="m766 654h-63.996v-63.996c0-13.254-10.746-24-24-24s-24 10.746-24 24v63.996h-64.008c-13.254 0-24 10.746-24 24s10.746 24 24 24h64.008v64.004c0 13.254 10.746 24 24 24s24-10.746 24-24v-64.004h63.996c13.254 0 24-10.746 24-24s-10.746-24-24-24z"/>
 </g>
</svg>
