<svg width="16" height="16" viewBox="0 0 16 16" fill="none" xmlns="http://www.w3.org/2000/svg">
  <path d="M10.75 0H15.25C15.6656 0 16 0.334375 16 0.75V5.25C16 5.55312 15.8188 5.82812 15.5375 5.94375C15.2563 6.05937 14.9344 5.99687 14.7188 5.78125L13.5 4.5625L10.7812 7.28125C10.4875 7.575 10.0125 7.575 9.72188 7.28125L8.72188 6.28125C8.42813 5.9875 8.42813 5.5125 8.72188 5.22188L11.4406 2.50312L10.2188 1.28125C10.0031 1.06562 9.94062 0.74375 10.0562 0.4625C10.1719 0.18125 10.4469 0 10.75 0ZM5.25 16H0.75C0.334375 16 0 15.6656 0 15.25V10.75C0 10.4469 0.18125 10.1719 0.4625 10.0562C0.74375 9.94062 1.06562 10.0031 1.28125 10.2188L2.5 11.4375L5.21875 8.71875C5.5125 8.425 5.9875 8.425 6.27812 8.71875L7.27812 9.71875C7.57187 10.0125 7.57187 10.4875 7.27812 10.7781L4.55937 13.4969L5.77812 14.7156C5.99375 14.9312 6.05625 15.2531 5.94063 15.5344C5.825 15.8156 5.55 15.9969 5.24687 15.9969L5.25 16Z" fill="#0A2540"/>
</svg>
