<svg width="16" height="16" viewBox="0 0 16 16" fill="none" xmlns="http://www.w3.org/2000/svg">
  <path
    d="M6.5 2.5C6.5 2.10218 6.65804 1.72064 6.93934 1.43934C7.22064 1.15804 7.60218 1 8 1C8.39782 1 8.77936 1.15804 9.06066 1.43934C9.34196 1.72064 9.5 2.10218 9.5 2.5C9.5 2.89782 9.34196 3.27936 9.06066 3.56066C8.77936 3.84196 8.39782 4 8 4C7.60218 4 7.22064 3.84196 6.93934 3.56066C6.65804 3.27936 6.5 2.89782 6.5 2.5ZM5 7C5 6.44688 5.44687 6 6 6H8C8.55312 6 9 6.44688 9 7V14H10C10.5531 14 11 14.4469 11 15C11 15.5531 10.5531 16 10 16H6C5.44687 16 5 15.5531 5 15C5 14.4469 5.44687 14 6 14H7V8H6C5.44687 8 5 7.55312 5 7Z"
    fill="#0A2540"
  />
</svg>
