<svg width="16" height="16" viewBox="0 0 16 16" fill="none" xmlns="http://www.w3.org/2000/svg">
  <path
    d="M8.00026 0C8.27917 0 8.53383 0.162488 8.6551 0.421843L10.7348 4.83713L15.3793 5.54333C15.6521 5.58395 15.8795 5.78081 15.9644 6.05267C16.0493 6.32452 15.9796 6.61825 15.7855 6.81824L12.4174 10.2617L13.2117 15.1239C13.2571 15.4051 13.145 15.6894 12.9206 15.8582C12.6963 16.0269 12.3961 16.0457 12.1536 15.9113L8.00026 13.624L3.84994 15.9082C3.60438 16.0425 3.30728 16.0238 3.08294 15.8551C2.85859 15.6863 2.74339 15.402 2.78887 15.1207L3.58316 10.2586L0.214999 6.81824C0.0179424 6.61825 -0.0487538 6.3214 0.0361323 6.05267C0.121018 5.78394 0.348392 5.58708 0.62124 5.54333L5.26572 4.83713L7.34543 0.421843C7.46972 0.162488 7.72135 0 8.00026 0ZM8.00026 2.46856L6.40865 5.84956C6.30254 6.07142 6.09942 6.22765 5.85992 6.26515L2.27349 6.80886L4.87767 9.46804C5.04441 9.6399 5.12323 9.88363 5.08382 10.1242L4.4684 13.8646L7.65769 12.1085C7.87293 11.9897 8.13062 11.9897 8.34284 12.1085L11.5321 13.8646L10.9197 10.1274C10.8803 9.88675 10.9561 9.64302 11.1259 9.47116L13.7301 6.81199L10.1436 6.26515C9.90717 6.22765 9.70101 6.07454 9.59491 5.84956L8.00026 2.46856Z"
    fill="#0A2540"
  />
</svg>
