<svg width="11" height="12" viewBox="0 0 11 12" fill="none" xmlns="http://www.w3.org/2000/svg">
<path d="M1.03198 8.5925C0.908669 8.59291 0.789738 8.54682 0.698914 8.46341C0.608089 8.38 0.552058 8.26541 0.541992 8.1425C0.581646 7.36531 0.779461 6.60438 1.12335 5.90628C1.46724 5.20818 1.94998 4.5876 2.54199 4.08251C4.42199 2.19251 6.62198 1.54251 7.65198 2.57251C8.39198 3.32251 8.26197 4.7225 7.30197 6.2325C7.26821 6.28944 7.22328 6.33896 7.16986 6.37805C7.11644 6.41715 7.05566 6.44499 6.99118 6.45995C6.9267 6.4749 6.85985 6.47664 6.79468 6.46504C6.72951 6.45345 6.66734 6.42878 6.61197 6.3925C6.50073 6.32077 6.42247 6.20785 6.39435 6.07851C6.36623 5.94916 6.39055 5.81394 6.46198 5.7025C7.12197 4.7025 7.32199 3.70251 6.94199 3.27251C6.73276 3.15513 6.49689 3.09348 6.25699 3.09348C6.01709 3.09348 5.78121 3.15513 5.57199 3.27251C4.69172 3.60864 3.89622 4.1344 3.24197 4.8125C2.27143 5.6343 1.66416 6.80573 1.55197 8.07251C1.55888 8.13692 1.55297 8.20204 1.53455 8.26415C1.51612 8.32625 1.48556 8.38408 1.44464 8.4343C1.40372 8.48451 1.35324 8.52613 1.29614 8.55672C1.23904 8.58731 1.17644 8.60626 1.11197 8.6125L1.03198 8.5925Z" fill="#202020"/>
<path d="M4.68203 9.33251C4.44598 9.34158 4.21047 9.30384 3.98907 9.22146C3.76767 9.13907 3.56474 9.01369 3.39203 8.85251C2.64203 8.10251 2.77205 6.6925 3.73205 5.1825C3.76677 5.1266 3.81219 5.07811 3.86569 5.0398C3.91919 5.00149 3.97972 4.97413 4.04382 4.95926C4.10792 4.9444 4.17432 4.94234 4.23922 4.95319C4.30413 4.96404 4.36628 4.9876 4.42205 5.02251C4.47899 5.05627 4.5285 5.1012 4.56759 5.15462C4.60668 5.20804 4.63455 5.26883 4.6495 5.33332C4.66445 5.3978 4.66616 5.46465 4.65457 5.52982C4.64298 5.59499 4.6183 5.65714 4.58203 5.71251C3.91203 6.71251 3.72205 7.71251 4.10205 8.14251C4.48205 8.57251 4.85204 8.39251 5.47204 8.14251C6.35042 7.80364 7.14276 7.27427 7.79205 6.5925C8.76027 5.7731 9.36732 4.60572 9.48205 3.3425C9.47549 3.27684 9.48191 3.21053 9.50097 3.14736C9.52003 3.08418 9.55135 3.02538 9.59314 2.97431C9.63492 2.92324 9.68635 2.8809 9.7445 2.84971C9.80265 2.81851 9.86637 2.79907 9.93203 2.7925C9.99769 2.78593 10.064 2.79238 10.1272 2.81144C10.1904 2.8305 10.2492 2.86181 10.3002 2.9036C10.3513 2.94539 10.3936 2.99682 10.4248 3.05497C10.456 3.11312 10.4755 3.17685 10.4821 3.24251C10.4395 4.01911 10.2404 4.77908 9.89673 5.47678C9.55303 6.17448 9.07184 6.7955 8.48205 7.30251C7.51038 8.42628 6.15633 9.14962 4.68203 9.33251Z" fill="#202020"/>
<path d="M9.45209 1.2825L9.93207 1.1425C9.94738 1.13682 9.96059 1.12658 9.96991 1.11317C9.97923 1.09977 9.98422 1.08384 9.98422 1.0675C9.98422 1.05117 9.97923 1.03523 9.96991 1.02182C9.96059 1.00841 9.94738 0.998191 9.93207 0.992508L9.45209 0.862503C9.42418 0.85032 9.39907 0.832467 9.37842 0.810089C9.35776 0.787712 9.34198 0.761293 9.33206 0.732498L9.14206 0.0625C9.13638 0.0471898 9.12617 0.0339826 9.11276 0.0246582C9.09936 0.0153338 9.08341 0.0103455 9.06708 0.0103455C9.05075 0.0103455 9.0348 0.0153338 9.02139 0.0246582C9.00799 0.0339826 8.99775 0.0471898 8.99207 0.0625L8.80206 0.732498C8.79167 0.762607 8.77457 0.789962 8.75204 0.812485C8.72952 0.835007 8.7022 0.852112 8.67209 0.862503L8.20209 0.992508C8.18678 0.998191 8.17357 1.00841 8.16425 1.02182C8.15492 1.03523 8.1499 1.05117 8.1499 1.0675C8.1499 1.08384 8.15492 1.09977 8.16425 1.11317C8.17357 1.12658 8.18678 1.13682 8.20209 1.1425L8.67209 1.2825C8.70151 1.29119 8.72853 1.30654 8.75107 1.32735C8.77361 1.34816 8.79105 1.37386 8.80206 1.4025L8.99207 2.0825C8.99775 2.09781 9.00799 2.11102 9.02139 2.12035C9.0348 2.12967 9.05075 2.13466 9.06708 2.13466C9.08341 2.13466 9.09936 2.12967 9.11276 2.12035C9.12617 2.11102 9.13638 2.09781 9.14206 2.0825L9.33206 1.4025C9.34204 1.37492 9.35799 1.34988 9.37872 1.32915C9.39946 1.30841 9.42451 1.29248 9.45209 1.2825Z" fill="#202020"/>
<path d="M2.25211 10.5325L2.73212 10.3925C2.74743 10.3868 2.76063 10.3766 2.76996 10.3632C2.77928 10.3498 2.78427 10.3338 2.78427 10.3175C2.78427 10.3012 2.77928 10.2852 2.76996 10.2718C2.76063 10.2584 2.74743 10.2482 2.73212 10.2425L2.25211 10.1025C2.22233 10.097 2.19491 10.0825 2.17349 10.0611C2.15207 10.0397 2.13766 10.0123 2.13211 9.9825L1.9321 9.30251C1.92642 9.2872 1.91618 9.27399 1.90277 9.26466C1.88936 9.25534 1.87345 9.25034 1.85712 9.25034C1.84079 9.25034 1.82484 9.25534 1.81143 9.26466C1.79802 9.27399 1.78779 9.2872 1.7821 9.30251L1.5921 9.9825C1.58537 10.0117 1.57054 10.0385 1.54932 10.0597C1.5281 10.0809 1.50135 10.0958 1.47211 10.1025L0.992096 10.2425C0.976786 10.2482 0.963579 10.2584 0.954254 10.2718C0.94493 10.2852 0.939941 10.3012 0.939941 10.3175C0.939941 10.3338 0.94493 10.3498 0.954254 10.3632C0.963579 10.3766 0.976786 10.3868 0.992096 10.3925L1.47211 10.5325C1.50135 10.5392 1.5281 10.5541 1.54932 10.5753C1.57054 10.5965 1.58537 10.6233 1.5921 10.6525L1.7821 11.3225C1.78779 11.3378 1.79802 11.351 1.81143 11.3603C1.82484 11.3697 1.84079 11.3747 1.85712 11.3747C1.87345 11.3747 1.88936 11.3697 1.90277 11.3603C1.91618 11.351 1.92642 11.3378 1.9321 11.3225L2.13211 10.6525C2.13766 10.6227 2.15207 10.5953 2.17349 10.5739C2.19491 10.5525 2.22233 10.538 2.25211 10.5325Z" fill="#202020"/>
<path d="M1.32245 3.1725L1.80243 3.0425C1.81774 3.03681 1.83095 3.02659 1.84027 3.01318C1.8496 2.99978 1.85461 2.98383 1.85461 2.9675C1.85461 2.95117 1.8496 2.93524 1.84027 2.92183C1.83095 2.90842 1.81774 2.89818 1.80243 2.8925L1.32245 2.7525C1.29412 2.74391 1.26834 2.72847 1.24741 2.70753C1.22647 2.6866 1.21105 2.66083 1.20245 2.63251L1.03244 2.0025C1.02676 1.98719 1.01652 1.97399 1.00311 1.96466C0.989706 1.95534 0.973759 1.95035 0.957428 1.95035C0.941097 1.95035 0.925181 1.95534 0.911774 1.96466C0.898367 1.97399 0.888129 1.98719 0.882446 2.0025L0.682434 2.6825C0.675698 2.71174 0.660868 2.7385 0.639648 2.75972C0.618429 2.78094 0.591682 2.79577 0.562439 2.80251L0.082428 2.9425C0.0671178 2.94819 0.0539106 2.95843 0.0445862 2.97183C0.0352618 2.98524 0.0302734 3.00117 0.0302734 3.0175C0.0302734 3.03383 0.0352618 3.04978 0.0445862 3.06319C0.0539106 3.07659 0.0671178 3.08682 0.082428 3.0925L0.562439 3.2225C0.591941 3.23201 0.618503 3.24897 0.639526 3.27174C0.66055 3.29452 0.675317 3.32234 0.682434 3.35251L0.882446 4.02251C0.888129 4.03782 0.898367 4.05102 0.911774 4.06035C0.925181 4.06967 0.941097 4.07466 0.957428 4.07466C0.973759 4.07466 0.989706 4.06967 1.00311 4.06035C1.01652 4.05102 1.02676 4.03782 1.03244 4.02251L1.22244 3.35251C1.22122 3.31626 1.22988 3.28035 1.2475 3.24864C1.26511 3.21694 1.29102 3.19062 1.32245 3.1725Z" fill="#202020"/>
<path d="M4.31235 1.8925C4.53878 1.8925 4.72235 1.70893 4.72235 1.4825C4.72235 1.25606 4.53878 1.07251 4.31235 1.07251C4.08591 1.07251 3.90234 1.25606 3.90234 1.4825C3.90234 1.70893 4.08591 1.8925 4.31235 1.8925Z" fill="#202020"/>
<path d="M7.952 9.4825C8.17843 9.4825 8.36197 9.29895 8.36197 9.07251C8.36197 8.84607 8.17843 8.66251 7.952 8.66251C7.72556 8.66251 7.54199 8.84607 7.54199 9.07251C7.54199 9.29895 7.72556 9.4825 7.952 9.4825Z" fill="#202020"/>
<path d="M3.50229 12.0025C3.72873 12.0025 3.91229 11.8189 3.91229 11.5925C3.91229 11.3661 3.72873 11.1825 3.50229 11.1825C3.27585 11.1825 3.09229 11.3661 3.09229 11.5925C3.09229 11.8189 3.27585 12.0025 3.50229 12.0025Z" fill="#202020"/>
</svg>
