<svg width="16" height="16" viewBox="0 0 16 16" fill="none" xmlns="http://www.w3.org/2000/svg">
  <path
    d="M1.59961 5.6C1.59961 7.1925 2.39961 9.6 2.39961 9.6H5.59961C5.59961 8.4 5.99961 7.7 6.39961 7C6.79961 6.3 7.19961 5.6 7.19961 4.4C7.19961 2.99 6.79961 0 4.79961 0C2.79961 0 1.59961 3.2 1.59961 5.6ZM3.99961 12.8C4.88211 12.8 5.59961 12.0825 5.59961 11.2V10.4H2.39961V11.2C2.39961 12.0825 3.11711 12.8 3.99961 12.8ZM14.3996 8.8C14.3996 6.4 13.1996 3.2 11.1996 3.2C9.19961 3.2 8.79961 6.19 8.79961 7.6C8.79961 8.8 9.19961 9.5 9.59961 10.2C9.99961 10.9 10.3996 11.6 10.3996 12.8H13.5996C13.5996 12.8 14.3996 10.3925 14.3996 8.8ZM11.9996 16C12.8821 16 13.5996 15.2825 13.5996 14.4V13.6H10.3996V14.4C10.3996 15.2825 11.1171 16 11.9996 16Z"
    fill="#0A2540"
  />
</svg>
