<svg width="16" height="17" viewBox="0 0 16 17" fill="none" xmlns="http://www.w3.org/2000/svg">
  <path
    d="M14.5921 2.30458C14.9957 1.8189 14.9314 1.09753 14.4457 0.693995C13.96 0.290456 13.2387 0.354737 12.8351 0.840411L7.99981 6.64351L3.16449 0.840411C2.76096 0.354737 2.03959 0.290456 1.55391 0.693995C1.06824 1.09753 1.00396 1.8189 1.4075 2.30458L6.51065 8.42908L1.4075 14.5536C1.00396 15.0393 1.06824 15.7606 1.55391 16.1642C2.03959 16.5677 2.76096 16.5034 3.16449 16.0177L7.99981 10.2146L12.8351 16.0177C13.2387 16.5034 13.96 16.5677 14.4457 16.1642C14.9314 15.7606 14.9957 15.0393 14.5921 14.5536L9.48898 8.42908L14.5921 2.30458Z"
    fill="#0A2540"
  />
</svg>
